<?xml version="1.0" standalone="no"?>
<!DOCTYPE svg PUBLIC "-//W3C//DTD SVG 20010904//EN"
 "http://www.w3.org/TR/2001/REC-SVG-20010904/DTD/svg10.dtd">
<svg version="1.0" xmlns="http://www.w3.org/2000/svg"
 width="2263.000000pt" height="2435.000000pt" viewBox="0 0 2263.000000 2435.000000"
 preserveAspectRatio="xMidYMid meet">
<metadata>
Created by potrace 1.16, written by Peter Selinger 2001-2019
</metadata>
<g transform="translate(0.000000,2435.000000) scale(0.100000,-0.100000)"
fill="#000000" stroke="none">
<path d="M11598 24298 c-25 -54 -38 -80 -103 -223 -20 -44 -58 -125 -84 -180
-46 -97 -83 -176 -121 -260 -10 -22 -41 -87 -68 -145 -28 -58 -67 -141 -87
-185 -64 -139 -72 -158 -123 -265 -28 -58 -65 -136 -82 -175 -18 -38 -43 -92
-57 -120 -13 -27 -22 -57 -20 -67 3 -10 1 -16 -4 -13 -4 3 -28 -36 -53 -87
-97 -206 -126 -271 -122 -275 2 -3 -4 -13 -15 -24 -24 -24 -24 -38 2 -69 19
-23 19 -23 9 -2 -6 12 -8 28 -4 34 5 7 3 8 -6 3 -8 -5 -11 -3 -8 6 3 8 13 13
22 13 11 -1 15 5 12 21 -2 12 0 28 5 36 7 12 9 12 9 -1 0 -13 1 -13 10 0 5 8
10 11 10 6 0 -6 7 -1 16 10 14 18 15 18 10 -6 -3 -14 -3 -19 0 -12 3 6 19 12
35 12 22 0 29 -5 29 -20 0 -19 7 -20 180 -20 113 0 180 -4 180 -10 0 -6 57
-10 150 -10 93 0 150 -4 150 -10 0 -6 56 -10 149 -10 110 0 151 -3 154 -12 4
-10 7 -10 18 0 11 10 10 12 -4 12 -9 0 -17 5 -17 10 0 6 67 10 180 10 113 0
180 4 180 10 0 6 57 10 150 10 143 0 150 1 150 20 0 18 7 20 54 20 30 0 61 3
70 6 9 3 16 1 16 -6 0 -6 -4 -9 -9 -6 -4 3 -8 -11 -7 -31 1 -27 6 -37 19 -39
17 -2 17 -1 2 23 -9 13 -14 27 -11 31 3 3 6 1 6 -5 0 -5 7 -10 15 -10 9 0 14
3 13 6 -45 90 -148 312 -148 317 0 3 -8 17 -17 31 -10 15 -18 31 -18 37 0 6
-21 54 -47 106 -25 52 -62 131 -83 175 -20 44 -45 98 -55 120 -10 22 -41 87
-68 145 -28 58 -67 141 -87 185 -20 44 -45 98 -55 120 -10 22 -38 83 -63 135
-25 52 -59 127 -77 165 -18 39 -45 97 -60 130 -16 33 -49 103 -73 155 -25 52
-59 125 -77 163 -17 37 -35 67 -39 67 -4 0 -19 -24 -33 -52z"/>
<path d="M4490 18028 c896 -1492 2868 -4777 4382 -7300 1514 -2523 2756 -4587
2760 -4588 4 0 644 1061 1421 2357 778 1297 2749 4580 4380 7296 1632 2716
2967 4940 2967 4943 0 2 -618 4 -1373 4 l-1373 0 -3009 -5015 c-2778 -4629
-3011 -5014 -3024 -4995 -7 11 -1362 2267 -3011 5013 l-2996 4992 -1377 3
-1377 2 1630 -2712z"/>
<path d="M11148 18795 c-133 -34 -251 -121 -315 -235 -42 -75 -860 -1828 -890
-1909 -79 -211 -6 -442 180 -575 67 -47 798 -394 902 -427 230 -73 454 13 586
227 l22 36 23 -37 c70 -116 198 -212 322 -241 78 -19 170 -14 259 14 74 24
812 366 878 408 82 52 142 119 185 207 65 131 71 246 21 389 -17 48 -812 1762
-877 1890 -33 65 -76 117 -135 161 -169 130 -360 136 -591 21 -37 -19 -74 -34
-82 -34 -8 0 -50 16 -93 36 -169 78 -282 98 -395 69z m188 -196 c24 -6 46 -15
49 -18 2 -4 -78 -45 -178 -91 -100 -46 -199 -94 -219 -107 l-37 -23 10 28 c62
165 215 251 375 211z m776 -9 c66 -25 119 -67 151 -122 59 -103 879 -1890 889
-1941 21 -100 -24 -219 -106 -282 -44 -34 -832 -401 -893 -416 -106 -27 -236
17 -298 101 -49 67 -902 1903 -915 1969 -18 98 9 184 83 261 38 40 90 67 458
237 228 105 428 196 444 201 50 17 131 13 187 -8z m-1335 -835 c11 -27 183
-400 382 -829 198 -428 361 -783 361 -787 0 -21 -92 -191 -122 -225 -71 -81
-205 -115 -309 -79 -24 9 -221 98 -438 198 -435 201 -468 222 -516 324 -32 66
-35 143 -11 213 9 25 150 334 314 688 l297 642 11 -47 c6 -27 20 -70 31 -98z"/>
<path d="M11586 18205 c-43 -23 -55 -44 -56 -98 0 -41 5 -53 29 -78 37 -37
104 -41 144 -9 62 49 51 151 -18 185 -41 19 -62 19 -99 0z"/>
<path d="M4748 9608 c-14 -29 -34 -73 -46 -98 -11 -25 -39 -85 -62 -134 -22
-49 -39 -95 -36 -103 3 -8 2 -11 -3 -8 -10 5 -37 -49 -166 -330 -20 -44 -59
-127 -87 -185 -51 -107 -59 -126 -123 -265 -20 -44 -59 -127 -87 -185 -92
-196 -106 -225 -138 -295 -29 -63 -59 -127 -150 -320 -15 -33 -42 -91 -60
-130 -18 -38 -52 -111 -76 -161 -46 -95 -55 -127 -29 -101 8 8 30 25 50 37 19
12 35 26 35 31 0 5 5 9 11 9 7 0 17 6 23 14 6 7 58 48 116 91 58 43 110 83
115 89 6 6 35 29 65 51 30 22 57 43 58 47 2 5 8 8 14 8 6 0 16 6 22 14 6 7 61
51 121 96 61 46 112 87 113 91 2 5 10 9 17 9 7 0 15 4 17 9 2 5 53 46 113 91
61 46 115 88 120 94 6 6 35 29 65 50 30 22 57 43 58 48 2 4 10 8 17 8 7 0 15
4 17 9 2 6 46 42 98 82 52 39 98 76 102 83 4 6 12 11 18 11 6 0 14 5 18 10 12
18 100 85 110 85 6 0 12 3 14 8 2 4 26 25 53 47 28 22 52 43 53 48 2 4 8 7 14
7 6 0 25 12 43 28 67 56 80 67 88 67 4 0 11 5 15 11 4 6 57 49 117 94 61 46
115 91 122 99 7 9 13 12 13 8 0 -4 10 2 23 15 12 13 29 28 38 33 30 18 184
139 191 149 4 6 4 14 2 18 -3 4 1 5 9 2 8 -3 21 1 28 8 8 8 22 17 32 21 9 3
17 11 17 17 0 6 -4 9 -9 5 -5 -3 -12 -1 -16 4 -3 6 5 8 19 5 17 -3 33 4 51 22
14 14 23 29 20 34 -3 4 3 7 12 5 25 -4 52 23 48 46 -2 11 0 17 6 14 5 -4 7
-11 4 -16 -3 -5 1 -6 9 -3 9 3 13 11 9 17 -3 6 -1 7 5 3 7 -4 28 5 47 20 27
20 33 29 23 35 -9 6 -6 9 9 9 22 0 44 27 42 52 0 7 -6 0 -13 -16 -10 -22 -14
-25 -19 -12 -6 15 -80 16 -817 16 -823 0 -817 0 -811 -33 1 -5 -4 -5 -10 -2
-6 4 -9 16 -6 26 3 11 1 19 -4 19 -4 0 -6 7 -3 15 4 8 10 13 14 10 5 -3 7 3 5
12 -4 25 13 53 32 53 12 0 13 3 4 14 -10 12 -9 18 6 33 10 10 19 26 19 36 3
34 4 36 22 31 14 -5 15 -4 2 5 -9 7 -11 14 -5 19 10 7 20 42 12 42 -2 0 -15
-24 -29 -52z"/>
<path d="M18555 9515 c4 -11 8 -27 9 -35 1 -9 6 -21 10 -29 5 -8 3 -17 -5 -22
-12 -7 -11 -9 1 -10 8 -1 20 0 25 1 6 1 7 -2 3 -6 -4 -4 -3 -13 3 -21 10 -11
-127 -13 -830 -13 -641 0 -840 3 -835 12 4 6 -4 3 -18 -8 -15 -10 -22 -21 -16
-23 6 -2 14 2 18 9 5 9 9 9 14 1 4 -6 4 -11 0 -11 -4 0 3 -11 16 -25 22 -23
24 -23 37 -7 11 15 12 14 3 -10 -7 -22 -6 -28 4 -28 8 0 17 -7 20 -16 5 -13 9
-14 20 -5 11 9 16 9 22 0 4 -8 3 -9 -4 -5 -8 4 -10 2 -6 -7 3 -9 13 -13 24
-10 13 3 18 0 17 -14 -1 -12 4 -17 16 -16 10 0 16 -1 13 -5 -9 -9 45 -53 56
-46 7 5 8 2 3 -6 -6 -10 -4 -12 8 -7 9 3 16 3 14 -2 -4 -13 60 -68 76 -65 10
1 14 -3 10 -12 -3 -8 0 -14 7 -14 7 0 27 -12 45 -27 69 -59 80 -68 88 -65 4 1
10 -5 13 -13 4 -8 12 -15 19 -15 7 0 16 -7 19 -16 3 -8 10 -12 16 -9 5 3 10 2
10 -4 0 -6 32 -34 70 -62 39 -29 70 -57 70 -61 0 -5 5 -6 10 -3 6 3 13 -1 16
-9 3 -9 12 -16 20 -16 7 0 17 -6 21 -13 4 -7 24 -24 43 -37 19 -13 39 -30 43
-37 4 -7 15 -13 22 -13 8 0 15 -4 15 -8 0 -4 45 -41 100 -82 55 -40 100 -77
100 -82 0 -4 6 -8 14 -8 8 0 17 -7 20 -16 4 -9 9 -15 12 -12 5 6 11 1 85 -61
20 -17 42 -31 48 -31 6 0 11 -4 11 -8 0 -5 20 -23 45 -41 24 -17 50 -37 57
-44 7 -7 34 -28 61 -46 26 -18 56 -42 67 -53 11 -12 20 -18 20 -13 0 5 6 2 13
-6 14 -17 103 -89 110 -89 5 0 56 -42 88 -72 11 -10 23 -18 28 -18 5 0 11 -3
13 -8 2 -4 28 -25 58 -47 30 -22 60 -45 65 -51 6 -6 57 -46 115 -89 58 -43
110 -84 116 -91 6 -8 16 -14 22 -14 6 0 12 -4 14 -8 2 -5 28 -26 58 -48 30
-21 60 -44 65 -50 6 -6 38 -32 73 -57 135 -102 187 -142 197 -153 15 -18 88
-64 93 -59 2 2 -16 46 -41 97 -25 51 -59 125 -77 163 -18 39 -45 97 -60 130
-91 193 -121 257 -150 320 -32 70 -46 99 -138 295 -28 58 -67 141 -87 185 -64
139 -72 158 -123 265 -28 58 -67 141 -87 185 -63 138 -72 157 -123 265 -88
185 -132 281 -132 288 0 4 -8 16 -17 27 l-16 20 8 -20z"/>
<path d="M3850 5748 l-393 -823 69 -64 c164 -152 214 -193 229 -187 14 5 1555
915 1565 923 3 3 -9 17 -26 31 -17 15 -70 62 -117 105 l-85 78 -409 -257
c-224 -141 -507 -322 -628 -403 -121 -80 -225 -149 -232 -154 -6 -4 -14 -3
-17 1 -3 5 69 148 160 318 149 277 529 1021 529 1034 0 9 -233 220 -243 220
-5 0 -186 -370 -402 -822z"/>
<path d="M19011 6155 c-78 -22 -176 -72 -250 -128 -172 -130 -500 -411 -492
-421 19 -24 1064 -1292 1072 -1300 7 -8 167 110 168 124 0 3 -105 133 -234
289 -130 157 -232 288 -228 291 4 4 73 61 153 128 80 66 170 146 202 178 222
231 231 499 22 711 -92 95 -171 133 -282 139 -50 3 -96 -1 -131 -11z m167
-215 c56 -26 134 -106 167 -175 52 -106 31 -216 -62 -325 -42 -49 -342 -302
-353 -298 -4 2 -95 109 -202 239 l-195 236 161 131 c89 73 177 142 196 154 97
60 208 74 288 38z"/>
<path d="M5094 4770 c-390 -304 -715 -557 -721 -564 -10 -9 11 -28 100 -90 61
-44 119 -81 127 -83 8 -2 102 66 210 153 107 86 200 158 207 161 9 3 378 -245
426 -287 5 -4 -30 -119 -77 -256 -47 -136 -83 -251 -80 -255 9 -16 238 -172
252 -173 12 -1 82 203 293 854 153 470 278 862 278 870 0 12 -266 207 -298
218 -4 1 -327 -245 -717 -548z m705 208 c-88 -219 -154 -396 -200 -530 -30
-87 -57 -158 -61 -158 -6 0 -298 200 -321 220 -5 4 101 100 235 213 135 113
269 228 299 256 30 28 57 50 61 51 4 0 -2 -24 -13 -52z"/>
<path d="M17775 5232 c-33 -10 -87 -30 -120 -46 -90 -41 -606 -359 -603 -372
6 -21 883 -1443 892 -1444 9 0 176 99 176 105 0 2 -121 200 -325 531 l-62 100
161 99 c246 151 320 212 392 320 96 144 100 328 12 483 -49 86 -131 167 -206
204 -59 29 -77 33 -162 35 -67 2 -112 -3 -155 -15z m211 -210 c89 -46 169
-181 169 -287 0 -131 -73 -213 -331 -373 -159 -98 -179 -109 -190 -94 -38 56
-316 514 -313 516 21 19 321 197 376 224 114 54 203 58 289 14z"/>
<path d="M6509 3949 c-209 -419 -379 -762 -377 -764 16 -12 919 -465 927 -465
6 0 29 36 51 80 l40 80 -372 186 c-205 102 -374 187 -376 189 -1 1 151 306
338 677 187 371 340 678 340 681 0 6 -173 97 -185 97 -3 0 -176 -342 -386
-761z"/>
<path d="M16125 4359 l-120 -50 3 -37 c89 -1040 152 -1745 154 -1747 4 -4 171
64 181 74 4 4 -4 130 -18 280 -14 150 -23 276 -21 280 3 4 126 58 275 120
l270 113 24 -28 c90 -109 330 -399 332 -402 4 -6 205 83 203 89 -2 6 -1059
1241 -1143 1336 l-20 22 -120 -50z m162 -277 c51 -64 173 -215 272 -335 l181
-217 -33 -13 c-17 -8 -121 -51 -230 -97 -109 -45 -199 -81 -201 -79 -2 2 -16
117 -30 254 -25 233 -60 512 -73 577 -11 55 23 29 114 -90z"/>
<path d="M8314 4036 c-290 -66 -503 -294 -622 -666 -50 -158 -65 -257 -59
-405 4 -103 10 -146 30 -210 68 -206 200 -342 410 -418 69 -25 101 -31 204
-35 112 -4 130 -2 205 21 257 81 444 294 558 636 55 164 73 279 67 421 -6 137
-23 207 -78 318 -98 200 -318 334 -569 347 -53 3 -108 -1 -146 -9z m235 -181
c125 -30 240 -114 291 -215 63 -124 73 -300 26 -485 -82 -323 -227 -545 -416
-638 -60 -30 -72 -32 -170 -32 -100 0 -108 2 -182 37 -227 108 -305 349 -222
677 91 359 267 597 485 655 70 19 110 19 188 1z"/>
<path d="M9635 2833 c-231 -427 -421 -782 -423 -789 -2 -6 7 -14 20 -17 51
-12 178 -31 181 -26 2 2 61 112 131 244 71 132 130 242 131 244 8 8 571 -102
580 -114 6 -7 24 -135 40 -283 l29 -270 103 -18 c57 -9 105 -15 108 -12 4 4
-201 1655 -218 1758 -1 10 -36 21 -117 37 -63 12 -122 22 -130 22 -10 1 -159
-266 -435 -776z m529 535 c25 -279 40 -431 59 -605 13 -112 20 -203 16 -203
-8 0 -362 65 -437 81 l-52 10 158 312 c87 172 174 347 193 389 19 43 39 77 46
78 7 0 14 -24 17 -62z"/>
<path d="M13075 3524 c-277 -57 -440 -275 -396 -528 43 -248 173 -343 561
-411 284 -50 369 -92 421 -210 31 -70 32 -183 1 -241 -62 -120 -217 -191 -397
-182 -144 7 -269 91 -334 223 -18 36 -34 65 -35 65 -9 0 -196 -92 -196 -96 0
-3 12 -28 26 -57 115 -229 343 -339 636 -307 396 44 595 277 523 614 -19 92
-50 152 -105 206 -84 83 -203 127 -478 175 -182 32 -235 47 -303 88 -43 26
-59 44 -84 91 -26 51 -30 71 -30 135 0 65 4 83 28 124 56 96 168 150 312 151
73 0 100 -4 141 -22 64 -29 134 -100 176 -179 l33 -61 95 39 c52 22 96 42 99
45 14 14 -68 144 -129 205 -106 107 -220 150 -395 148 -55 0 -131 -7 -170 -15z"/>
<path d="M11010 3459 c0 -13 -16 -395 -36 -848 -30 -686 -34 -825 -22 -832 7
-5 51 -8 98 -7 l85 3 21 485 c12 267 25 608 29 758 6 198 11 272 19 272 7 0
59 -107 115 -237 57 -131 216 -481 354 -779 l250 -541 131 -6 c72 -3 131 -5
132 -4 2 2 74 1639 74 1678 0 26 -1 27 -92 31 -51 3 -95 3 -98 1 -8 -7 -38
-731 -46 -1105 -5 -262 -10 -348 -19 -348 -7 0 -48 89 -92 198 -62 152 -289
660 -578 1289 0 1 -73 5 -163 9 l-162 7 0 -24z"/>
<path d="M15098 2326 c-64 -17 -119 -34 -123 -38 -6 -6 50 -236 59 -246 6 -5
236 54 244 63 6 6 -44 218 -57 241 -4 7 -43 1 -123 -20z"/>
</g>
</svg>
